<svg width="133" height="39" viewBox="0 0 133 39" fill="none" xmlns="http://www.w3.org/2000/svg">
<path fill-rule="evenodd" clip-rule="evenodd" d="M79.022 30.1685C78.1404 30.8456 77.1923 31.4555 76.2442 31.9976V29.1533C76.7851 28.95 77.3956 28.6789 77.9377 28.4763C79.1563 27.9341 80.2431 29.2895 79.0207 30.1685H79.022ZM85.456 25.4261C85.456 24.884 85.3205 24.4774 85.185 24.2747C84.5757 23.5293 80.105 22.8516 76.2442 24.003V26.1025C78.6148 25.8999 81.3913 25.8315 82.0709 26.7105C83.019 27.8619 80.9866 32.8741 80.1056 35.0414C79.8346 35.7191 80.4476 35.9914 81.0556 35.5164C84.1032 32.9425 85.3902 28.2685 85.4579 25.8296V25.4274L85.456 25.4261ZM76.2442 31.997C69.1319 36.2644 59.9194 38.5 51.9267 38.5C39.0568 38.5 27.5415 33.7589 18.8034 25.8334C18.0586 25.2241 18.6679 24.3431 19.5488 24.8175C28.9646 30.3022 40.6135 33.6208 52.6722 33.6227C60.2589 33.6227 68.4548 32.2009 76.2448 29.152V31.997H76.2442ZM76.2442 24.0011C75.2058 24.3231 74.2232 24.8031 73.3309 25.4242C72.6545 25.898 72.7894 26.5072 73.4639 26.4401C74.2093 26.3046 75.1574 26.2368 76.2417 26.1013V24.0043L76.2442 24.0011Z" fill="#F8991D"/>
<path fill-rule="evenodd" clip-rule="evenodd" d="M130.338 5.10623V4.76803C130.561 4.77015 130.783 4.72778 130.989 4.64342C131.195 4.55905 131.383 4.43438 131.54 4.27669C131.698 4.119 131.823 3.93145 131.907 3.72503C131.991 3.51861 132.034 3.29746 132.031 3.0745C132.031 2.12577 131.219 1.38097 130.338 1.38097V1.04277C131.421 1.04277 132.371 1.9231 132.371 3.0745C132.37 4.15877 131.423 5.10877 130.34 5.10877L130.338 5.10623ZM130.338 3.27717H130.406C130.541 3.27717 130.608 3.34683 130.608 3.48047C130.608 3.55013 130.678 4.08847 130.741 4.2259H131.215C131.131 4.03334 131.085 3.82617 131.079 3.616C131.012 3.34493 131.012 3.14163 130.673 3.0745C130.876 3.00737 131.147 2.93897 131.147 2.533C131.147 1.9231 130.605 1.9231 130.335 1.9231V2.26193C130.47 2.26193 130.67 2.26193 130.67 2.60077C130.67 2.7363 130.603 2.9396 130.332 2.9396V3.27717H130.338ZM130.338 1.04213V1.38033C129.39 1.38033 128.577 2.12513 128.577 3.07387C128.577 4.02387 129.388 4.76487 130.338 4.7674V5.1056C129.186 5.1056 128.238 4.22527 128.238 3.07387C128.238 1.92247 129.186 1.04277 130.34 1.04213H130.338ZM130.338 1.92247H129.525V4.2259H130V3.27717H130.338V2.93897H130V2.26193H130.338V1.92247ZM99.0702 22.9206V18.8565C101.984 18.7888 102.119 14.5891 102.119 12.083C102.119 10.3895 102.051 8.35714 101.509 6.73137C101.103 5.37667 100.291 4.83453 99.0695 4.7674V0.702668C104.76 0.772334 107.879 5.71867 107.879 12.014C107.878 18.1111 104.424 22.8548 99.0721 22.9206H99.0702ZM115.396 22.5147H111.535C111.128 22.4469 110.789 22.1758 110.789 21.7692V1.78693C110.857 1.38033 111.128 1.1099 111.535 1.1099H115.193C115.531 1.1099 115.801 1.38223 115.871 1.71917V4.7674H115.938C117.021 1.99023 118.58 0.702668 121.289 0.702668C122.982 0.702668 124.74 1.31067 125.83 3.07387C126.846 4.70153 126.843 7.34253 126.843 9.30587V21.837C126.777 22.1752 126.505 22.514 126.098 22.514H122.17C121.832 22.4463 121.493 22.1752 121.493 21.837V11.0672C121.493 8.8315 121.764 5.64837 119.054 5.64837C118.106 5.64837 117.225 6.25763 116.751 7.2735C116.209 8.49267 116.141 9.71247 116.141 11.0665V21.7686C116.141 22.1771 115.805 22.5128 115.393 22.5147H115.396ZM73.6703 4.63187V1.78693C73.6703 1.38033 74.0092 1.04213 74.4158 1.04213H87.218C87.6246 1.04213 87.9653 1.3778 87.9653 1.78693V4.2259C87.9653 4.63187 87.6271 5.174 87.0172 6.05497L80.3761 15.5372C82.815 15.4701 85.4554 15.8792 87.6911 17.0959C88.1648 17.4315 88.2991 17.8432 88.3687 18.2466V21.2271C88.3687 21.6331 87.895 22.1081 87.4206 21.9041C83.4237 19.8046 78.2088 19.6007 73.873 21.9041C73.3993 22.1752 72.9249 21.6324 72.9249 21.2271V18.3822C72.9249 17.9756 72.9249 17.1624 73.3993 16.4176L81.1209 5.37603H74.4151C74.0092 5.37477 73.6691 5.10877 73.6691 4.63187H73.6703ZM99.0702 0.702668V4.7674C96.1587 4.7674 96.0226 8.69597 96.0226 11.1349C96.0226 13.641 95.9554 18.8553 99.0056 18.8565H99.0689V22.9206H99.0024C93.3125 22.9206 90.1972 17.9756 90.1972 11.812C90.1972 5.57997 93.3797 0.702668 99.0024 0.702668C99.0702 0.700768 99.0721 0.700768 99.0721 0.702668H99.0702ZM60.5293 22.4463V18.8565C61.4096 18.6532 62.1551 18.0433 62.6966 17.0959C63.442 15.7405 63.442 14.522 63.442 12.964V12.1514C62.4261 12.1514 61.4096 12.2186 60.5293 12.4225V9.3065C61.5452 9.17033 62.561 9.1032 63.442 9.03543V8.4933C63.442 7.5452 63.5091 6.46157 62.9676 5.649C62.4933 4.97133 61.5452 4.6325 60.7326 4.6325H60.5293V0.500634H61.34C63.2362 0.500634 65.672 1.0453 67.1666 2.46523C69.0628 4.2259 68.9273 6.59457 68.9273 9.17033V15.2674C68.9273 17.0978 69.6746 17.9084 70.3523 18.8584C70.624 19.1941 70.6943 19.6058 70.3523 19.8743C69.6075 20.552 68.1844 21.7711 67.3718 22.4482C67.1008 22.6515 66.7626 22.6515 66.4244 22.5178C65.1368 21.4342 64.9335 20.9598 64.1893 19.944C62.9005 21.2968 61.8131 22.0378 60.5274 22.4463H60.5293ZM60.5293 0.5V4.63187C59.1062 4.7674 57.9554 5.51283 57.616 7.00307C57.5488 7.3419 57.2771 7.6801 56.9389 7.7485L53.1453 7.27413C52.8064 7.20637 52.4682 7.00307 52.6038 6.46093C53.417 2.19543 57.0061 0.700767 60.5274 0.5H60.5293ZM60.5293 9.30587V12.4219C58.9035 12.8956 57.616 13.9115 57.616 16.0762C57.616 17.7672 58.4963 18.9199 59.9846 18.9211C60.1879 18.9211 60.3241 18.854 60.5268 18.854V22.4437C59.6189 22.6728 58.6859 22.7876 57.7496 22.7857C54.4981 22.7857 51.9242 20.754 51.9242 16.7564C51.9242 13.5733 53.6177 11.4054 56.0561 10.3895C57.3462 9.77643 58.9694 9.51044 60.5274 9.30587H60.5293ZM9.31986 22.4463V18.8565C10.2015 18.6532 11.014 18.0433 11.4884 17.0959C12.3003 15.7405 12.2332 14.522 12.2332 12.964V12.1514C11.2173 12.1514 10.2015 12.2186 9.31986 12.4225V9.3065C10.3364 9.17033 11.3522 9.1032 12.2332 9.03543V8.4933C12.2332 7.5452 12.3003 6.46157 11.7595 5.649C11.2851 4.97133 10.4041 4.6325 9.59156 4.6325H9.31986V0.500634H10.1305C12.0274 0.500634 14.4625 1.0453 16.0205 2.46397C17.9174 4.22463 17.7115 6.5933 17.7115 9.16907V15.2662C17.7115 17.0965 18.4589 17.9072 19.1999 18.8559C19.4025 19.1916 19.4722 19.6007 19.1321 19.8692C18.3873 20.5469 16.9655 21.7661 16.1516 22.4431C15.8806 22.6464 15.5417 22.6464 15.2035 22.5109C13.9166 21.4272 13.7133 20.9529 12.9685 19.937C11.6917 21.2968 10.6081 22.0378 9.32239 22.4463H9.31986ZM26.8645 22.5147H22.9359C22.5293 22.4469 22.2582 22.1758 22.2582 21.8376V1.8547C22.2582 1.4481 22.5977 1.1099 23.0043 1.1099H26.5934C27 1.1099 27.3407 1.44557 27.3407 1.78693V4.42857H27.4085C28.3572 1.8547 30.1179 0.702668 32.5575 0.702668C34.9952 0.702668 36.5538 1.85533 37.6368 4.42857C38.5849 1.8547 40.6844 0.702668 42.9879 0.702668C44.6814 0.702668 46.4459 1.38033 47.5289 2.86867C48.748 4.55967 48.5422 6.998 48.5422 9.1678V21.7673C48.5422 22.1739 48.2034 22.5128 47.7296 22.5128H43.8682C43.4616 22.445 43.1905 22.1739 43.1905 21.7673V11.2021C43.1905 10.3895 43.2583 8.2216 43.055 7.4768C42.7839 6.12147 41.9036 5.7155 40.7522 5.7155C39.8035 5.7155 38.8554 6.32477 38.4488 7.34317C38.0428 8.35904 38.0428 10.0526 38.0428 11.204V21.7711C38.0428 22.1777 37.7033 22.5166 37.2974 22.5166H33.3682C33.03 22.4488 32.6911 22.1777 32.6911 21.7711V11.2021C32.6911 8.96703 33.03 5.64773 30.3206 5.64773C27.4763 5.64773 27.6105 8.89927 27.6105 11.2021V21.7692C27.6084 21.9662 27.5293 22.1544 27.3901 22.2937C27.2509 22.4331 27.0627 22.5124 26.8657 22.5147H26.8645ZM9.31986 0.5V4.63187C7.96579 4.7674 6.74663 5.51283 6.40779 7.00307C6.34003 7.3419 6.13673 7.6801 5.73013 7.7485L1.93709 7.27413C1.66666 7.20637 1.26006 7.00307 1.39559 6.46093C2.20816 2.19543 5.86439 0.700767 9.32239 0.5H9.31986ZM9.31986 9.30587V12.4219C7.69473 12.8956 6.40779 13.9115 6.40779 16.0787C6.40779 17.7697 7.28813 18.9224 8.77646 18.9237C8.97913 18.9237 9.18243 18.8565 9.31733 18.8565V22.4463C8.40978 22.6757 7.47688 22.7896 6.54079 22.7851C3.28926 22.7851 0.715393 20.7534 0.715393 16.7558C0.715393 13.5726 2.40893 11.4047 4.91503 10.3889C6.20449 9.77643 7.76439 9.51044 9.32239 9.30587H9.31986Z" fill="black"/>
</svg>
