<svg width="130" height="45" viewBox="0 0 130 45" fill="none" xmlns="http://www.w3.org/2000/svg">
<path d="M30.2929 23.8786C30.2424 18.3119 34.8433 15.6373 35.0506 15.5059C32.462 11.7189 28.4374 11.2032 27.0015 11.1425C23.5786 10.7937 20.3175 13.1599 18.5782 13.1599C16.8389 13.1599 14.1592 11.1931 11.3178 11.2487C7.58138 11.3043 4.13825 13.4177 2.21191 16.7648C-1.66604 23.4893 1.22093 33.4648 5.00282 38.9303C6.85332 41.5999 9.05268 44.6082 11.9498 44.497C14.7407 44.3857 15.7923 42.692 19.1596 42.692C22.5269 42.692 23.4775 44.497 26.42 44.4414C29.4183 44.3807 31.3193 41.7111 33.1546 39.0314C35.2731 35.9321 36.1478 32.9288 36.1984 32.7721C36.1326 32.7468 30.3536 30.5323 30.2929 23.8786Z" fill="black"/>
<path d="M24.7568 7.52778C26.293 5.6672 27.3294 3.0775 27.0465 0.5C24.8324 0.591444 22.1525 1.9753 20.565 3.8371C19.1446 5.48065 17.8826 8.11424 18.2338 10.643C20.6967 10.8356 23.2205 9.38348 24.7568 7.529" fill="black"/>
<path d="M49.7027 29.3538L47.1423 37.0741H43.8796L52.2168 12.5305H56.0392L64.4118 37.0741H61.0223L58.3985 29.3538H49.7027ZM57.7522 26.8763L55.3503 19.8131C54.8041 18.2098 54.4408 16.7528 54.0762 15.3336H54.0055L52.7679 19.79L50.366 26.8885L57.7522 26.8763Z" fill="black"/>
<path d="M66.893 25.2034L66.7466 19.4485H69.6241L69.7704 22.4722H69.8411C71.1506 20.3239 73.2282 19.0498 76.1056 19.0498C80.3681 19.0498 83.5675 22.6551 83.5675 28.0089C83.5675 34.3441 79.7098 37.4739 75.557 37.4739C73.2258 37.4739 71.1884 36.4522 70.1313 34.7087H70.0606V44.2969H66.8905L66.893 25.2034ZM70.0581 29.8999C70.0581 30.3876 70.1289 30.8095 70.2045 31.2094C70.786 33.4284 72.7161 34.961 75.0132 34.961C78.4003 34.961 80.3779 32.1958 80.3779 28.1503C80.3779 24.6145 78.5222 21.598 75.1351 21.598C72.9405 21.598 70.9128 23.166 70.291 25.5667C70.1569 25.9907 70.0838 26.4316 70.074 26.8762V29.8999H70.0581ZM86.8802 25.2034L86.7339 19.4485H89.6113L89.7576 22.4722H89.8283C91.1378 20.3239 93.2154 19.0498 96.0929 19.0498C100.355 19.0498 103.555 22.6551 103.555 28.0089C103.555 34.3441 99.697 37.4739 95.5442 37.4739C93.213 37.4739 91.1756 36.4522 90.1185 34.7087H90.0478V44.2969H86.8777L86.8802 25.2034ZM90.0502 29.8999C90.0502 30.3876 90.121 30.8095 90.1966 31.2094C90.7781 33.4284 92.7082 34.961 95.0053 34.961C98.3924 34.961 100.37 32.1958 100.37 28.1503C100.37 24.6145 98.5143 21.598 95.1272 21.598C92.9326 21.598 90.9049 23.166 90.2831 25.5667C90.149 25.9907 90.0759 26.4316 90.0661 26.8762V29.8999H90.0502ZM106.871 11.2234H110.078V37.0752H106.871V11.2234ZM116.518 28.844C116.589 33.1773 119.359 34.9623 122.559 34.9623C124.855 34.9623 126.235 34.5623 127.439 34.0527L127.985 36.3486C126.857 36.8606 124.937 37.441 122.125 37.441C116.699 37.441 113.459 33.871 113.459 28.5575C113.459 23.244 116.589 19.0522 121.725 19.0522C127.48 19.0522 129.004 24.1121 129.004 27.3431C129.004 28.0015 128.933 28.5063 128.882 28.8343L116.518 28.844ZM125.912 26.5482C125.949 24.512 125.073 21.342 121.468 21.342C118.227 21.342 116.807 24.3292 116.554 26.5482H125.912Z" fill="black"/>
</svg>
