<svg width="127" height="43" viewBox="0 0 127 43" fill="none" xmlns="http://www.w3.org/2000/svg">
<path d="M31.3254 15.4057H16.5654V19.7857H27.0354C26.5154 25.9257 21.4054 28.5457 16.5854 28.5457C13.4824 28.5457 10.5064 27.313 8.31226 25.1188C6.11809 22.9246 4.88541 19.9487 4.88541 16.8457C4.88541 13.7426 6.11809 10.7667 8.31226 8.57251C10.5064 6.37834 13.4824 5.14566 16.5854 5.14566C19.5266 5.14109 22.3549 6.27744 24.4754 8.31566L27.5454 5.13566C24.5801 2.26877 20.5995 0.693807 16.4754 0.755662C14.3624 0.770764 12.2731 1.2019 10.3268 2.02445C8.38044 2.847 6.61516 4.04486 5.13175 5.54963C3.64833 7.05441 2.47583 8.83663 1.68118 10.7945C0.886535 12.7524 0.485309 14.8477 0.500411 16.9607C0.515513 19.0736 0.946647 21.1629 1.7692 23.1093C2.59175 25.0556 3.78961 26.8209 5.29438 28.3043C6.79915 29.7877 8.58137 30.9602 10.5393 31.7549C12.4972 32.5495 14.5924 32.9508 16.7054 32.9357C25.3154 32.9357 31.6254 27.0357 31.6254 18.3057C31.6432 17.332 31.5527 16.3593 31.3554 15.4057H31.3254Z" fill="#4885ED"/>
<path d="M43.4154 12.2356C41.3738 12.2436 39.3802 12.8557 37.6859 13.9949C35.9917 15.1341 34.6726 16.7494 33.8949 18.6371C33.1173 20.5249 32.9159 22.6006 33.3161 24.6026C33.7164 26.6047 34.7003 28.4434 36.144 29.887C37.5877 31.3307 39.4264 32.3147 41.4284 32.7149C43.4305 33.1152 45.5062 32.9138 47.3939 32.1361C49.2817 31.3585 50.8969 30.0394 52.0361 28.3451C53.1754 26.6509 53.7875 24.6573 53.7954 22.6156C53.817 21.2466 53.5633 19.8871 53.0493 18.618C52.5353 17.3488 51.7715 16.196 50.8033 15.2277C49.8351 14.2595 48.6822 13.4958 47.4131 12.9818C46.144 12.4678 44.7845 12.214 43.4154 12.2356ZM43.4754 16.2956C44.7338 16.2215 45.9855 16.5272 47.0681 17.1731C48.1507 17.819 49.0142 18.7753 49.5467 19.9179C50.0792 21.0606 50.256 22.3369 50.0543 23.5812C49.8526 24.8256 49.2816 25.9807 48.4155 26.8966C47.5493 27.8125 46.4279 28.4471 45.1967 28.7179C43.9655 28.9887 42.6813 28.8833 41.5107 28.4154C40.3402 27.9475 39.3372 27.1387 38.6319 26.0938C37.9266 25.049 37.5516 23.8163 37.5554 22.5556C37.5134 21.7511 37.6353 20.9464 37.9135 20.1904C38.1918 19.4344 38.6207 18.7427 39.1743 18.1574C39.7278 17.572 40.3945 17.1052 41.1338 16.7852C41.8732 16.4652 42.6698 16.2986 43.4754 16.2956Z" fill="#DB3236"/>
<path d="M66.0354 12.2357C63.9933 12.2417 61.9987 12.8521 60.3032 13.9902C58.6076 15.1282 57.2869 16.7428 56.5078 18.6303C55.7286 20.5179 55.5258 22.5939 55.9249 24.5966C56.324 26.5993 57.3072 28.439 58.7505 29.8837C60.1937 31.3283 62.0325 32.3133 64.0348 32.7143C66.0371 33.1154 68.1133 32.9146 70.0016 32.1372C71.8899 31.3598 73.5058 30.0408 74.6454 28.3463C75.7851 26.6518 76.3975 24.6578 76.4054 22.6157C76.427 21.2475 76.1735 19.8889 75.6602 18.6204C75.1468 17.352 74.3839 16.1995 73.4168 15.2315C72.4496 14.2634 71.2979 13.4994 70.03 12.9848C68.762 12.4702 67.4036 12.2155 66.0354 12.2357ZM66.0954 16.2957C67.3538 16.2216 68.6055 16.5273 69.6881 17.1732C70.7707 17.8191 71.6342 18.7754 72.1667 19.918C72.6992 21.0607 72.876 22.337 72.6743 23.5813C72.4726 24.8257 71.9016 25.9808 71.0354 26.8967C70.1693 27.8126 69.0479 28.4472 67.8167 28.718C66.5855 28.9888 65.3013 28.8834 64.1307 28.4155C62.9601 27.9476 61.9572 27.1388 61.2519 26.0939C60.5466 25.049 60.1716 23.8164 60.1754 22.5557C60.1334 21.7512 60.2553 20.9465 60.5335 20.1905C60.8118 19.4344 61.2407 18.7428 61.7943 18.1574C62.3478 17.5721 63.0145 17.1053 63.7538 16.7853C64.4931 16.4652 65.2898 16.2987 66.0954 16.2957Z" fill="#F4C20D"/>
<path d="M88.2054 12.2458C82.6454 12.2458 78.2754 17.1158 78.2754 22.5758C78.2344 25.2439 79.2407 27.8219 81.0783 29.7567C82.916 31.6916 85.4387 32.8293 88.1054 32.9258C89.1815 32.9844 90.2562 32.7875 91.2417 32.3513C92.2271 31.915 93.0954 31.2518 93.7754 30.4158V32.4158C93.7754 35.9858 91.6054 38.1158 88.3354 38.1158C87.195 38.1063 86.0834 37.7568 85.1427 37.1119C84.2021 36.467 83.4754 35.5561 83.0554 34.4958L79.0554 36.1558C79.8291 37.9771 81.1257 39.528 82.7812 40.6121C84.4367 41.6962 86.3766 42.2647 88.3554 42.2458C93.8854 42.2458 98.0954 38.7658 98.0954 31.4658V12.8658H93.7854V14.6158C93.0786 13.8451 92.2148 13.2347 91.2523 12.8259C90.2898 12.4171 89.2508 12.2193 88.2054 12.2458ZM88.6054 16.2958C91.3354 16.2958 94.1254 18.6258 94.1254 22.5958C94.1254 26.5658 91.3354 28.8658 88.5454 28.8658C87.7565 28.8457 86.9796 28.667 86.2612 28.3403C85.5427 28.0137 84.8974 27.5457 84.3636 26.9644C83.8298 26.383 83.4186 25.7002 83.1543 24.9565C82.89 24.2128 82.7782 23.4236 82.8254 22.6358C82.8254 18.6358 85.6854 16.2958 88.6054 16.2958Z" fill="#4885ED"/>
<path d="M117.405 12.2156C112.165 12.2156 107.755 16.3856 107.755 22.5456C107.704 23.9031 107.929 25.257 108.418 26.5246C108.907 27.7922 109.649 28.9469 110.598 29.9182C111.548 30.8896 112.686 31.6572 113.942 32.1742C115.199 32.6913 116.547 32.9469 117.905 32.9256C119.609 32.9289 121.288 32.5173 122.797 31.7263C124.306 30.9353 125.599 29.7887 126.565 28.3856L122.985 26.0056C122.467 26.8856 121.725 27.6128 120.834 28.1134C119.944 28.6139 118.937 28.87 117.915 28.8556C116.854 28.8994 115.805 28.6248 114.901 28.0669C113.998 27.5091 113.282 26.6937 112.845 25.7256L126.715 19.9756L125.995 18.2856C125.334 16.53 124.161 15.0135 122.627 13.933C121.094 12.8524 119.271 12.2575 117.395 12.2256L117.405 12.2156ZM117.585 16.2156C118.368 16.1818 119.144 16.3718 119.822 16.7632C120.5 17.1546 121.053 17.7313 121.415 18.4256L112.155 22.2956C112.11 21.5391 112.214 20.781 112.462 20.0651C112.711 19.3491 113.099 18.6895 113.604 18.1243C114.109 17.559 114.72 17.0993 115.404 16.7717C116.087 16.4441 116.829 16.2551 117.585 16.2156Z" fill="#DB3236"/>
<path d="M101.145 32.3157H105.705V1.82568H101.145V32.3157Z" fill="#3CBA54"/>
</svg>
