<svg width="128" height="51" viewBox="0 0 128 51" fill="none" xmlns="http://www.w3.org/2000/svg">
<path d="M0 0V3.48929H24.8176V0H0ZM28.3338 0V3.48929H63.7001C63.7001 3.48929 60.0877 0 55.3031 0H28.3338ZM70.6379 0V3.48929H92.034L90.7641 0H70.6379ZM107.374 0L106.104 3.48929H127.306V0H107.374ZM0 6.7858V10.2751H24.8176V6.7858H0ZM28.3338 6.79078V10.2752H67.804C67.804 10.2752 67.3431 7.58969 66.5389 6.79078H28.3338ZM70.6379 6.79078V10.2752H94.3798L93.2044 6.79078H70.6379ZM104.834 6.79078L103.658 10.2752H127.306V6.79078H104.834ZM7.13197 13.5716V17.0659H17.8798V13.5716H7.13197ZM35.4659 13.5716V17.0659H46.2138V13.5716H35.4659ZM56.6678 13.5716V17.0659H67.4156C67.4156 17.0659 68.098 15.2206 68.098 13.5716H56.6678ZM77.77 13.5716V17.0659H96.8253L95.5553 13.5716H77.77ZM102.493 13.5716L101.218 17.0659H120.368V13.5716H102.493ZM7.13197 20.3625V23.8518H17.8798V20.3625H7.13197ZM35.4659 20.3625V23.8518H62.9182C62.9182 23.8518 65.2147 22.0615 65.9463 20.3625H35.4659ZM77.77 20.3625V23.8518H88.5179V21.9095L89.2003 23.8518H108.888L109.62 21.9095V23.8518H120.368V20.3625H100.192L99.1213 23.318L98.0455 20.3625H77.77ZM7.13197 27.1483V30.6376H17.8798V27.1483H7.13197ZM35.4659 27.1483V30.6376H65.9463C65.2146 28.9443 62.9182 27.1483 62.9182 27.1483H35.4659ZM77.77 27.1483V30.6376H88.5179V27.1483H77.77ZM90.4702 27.1483L91.77 30.6376H106.532L107.767 27.1483H90.4702ZM109.62 27.1483V30.6376H120.368V27.1483H109.62ZM7.13197 33.9341V37.4233H17.8798V33.9341H7.13197ZM35.4659 33.9341V37.4233H46.2138V33.9341H35.4659ZM56.6678 33.9341V37.4233H68.0979C68.0979 35.7766 67.4155 33.9341 67.4155 33.9341H56.6678ZM77.77 33.9341V37.4233H88.5179V33.9341H77.77ZM92.9107 33.9341L94.1707 37.4233H104.067L105.337 33.9341H92.9107ZM109.62 33.9341V37.4233H120.368V33.9341H109.62ZM0.194183 40.7199V44.2142H25.0118V40.7199H0.194183ZM28.3338 40.7199V44.2142H66.5389C67.3431 43.4141 67.804 40.7199 67.804 40.7199H28.3338ZM70.8322 40.7199V44.2142H88.5179V40.7199H70.8322ZM95.356 40.7199L96.6509 44.2142H101.686L102.901 40.7199H95.356ZM109.62 40.7199V44.2142H127.5V40.7199H109.62ZM0.194183 47.5107V51H25.0118V47.5107H0.194183ZM28.3338 47.5107V50.995H55.3031C60.0877 50.995 63.7001 47.5107 63.7001 47.5107H28.3338ZM70.8322 47.5107V51H88.5179V47.5107H70.8322ZM97.8114 47.5107L99.0565 50.9902L99.2707 50.995L100.536 47.5107H97.8114ZM109.62 47.5107V51H127.5V47.5107H109.62Z" fill="#1F70C1"/>
</svg>
