<svg width="128" height="29" viewBox="0 0 128 29" fill="none" xmlns="http://www.w3.org/2000/svg">
<path d="M127.5 13.2089V10.9754H124.726V7.50321L124.633 7.53196L122.028 8.32904L121.976 8.34464V10.9756H117.865V9.50991C117.865 8.82745 118.017 8.3052 118.318 7.95691C118.617 7.6128 119.044 7.43785 119.589 7.43785C119.98 7.43785 120.386 7.53012 120.794 7.71206L120.896 7.75776V5.4056L120.848 5.38791C120.467 5.25105 119.95 5.18213 119.308 5.18213C118.499 5.18213 117.764 5.35818 117.123 5.70708C116.481 6.05648 115.977 6.55527 115.623 7.18944C115.271 7.82288 115.092 8.55447 115.092 9.36408V10.9754H113.161V13.2089H115.092V22.6182H117.865V13.2089H121.976V19.1884C121.976 21.651 123.138 22.8989 125.429 22.8989C125.805 22.8989 126.202 22.8548 126.606 22.7684C127.018 22.6797 127.298 22.5912 127.464 22.4966L127.5 22.4749V20.2208L127.387 20.2954C127.237 20.3956 127.049 20.4776 126.83 20.5385C126.609 20.6006 126.425 20.6316 126.282 20.6316C125.745 20.6316 125.348 20.487 125.102 20.2017C124.853 19.9137 124.726 19.4101 124.726 18.7057V13.2089H127.5ZM106.97 20.632C105.963 20.632 105.17 20.2983 104.611 19.6411C104.048 18.9805 103.763 18.0387 103.763 16.8421C103.763 15.6075 104.048 14.6413 104.611 13.969C105.171 13.3012 105.956 12.9622 106.947 12.9622C107.908 12.9622 108.674 13.286 109.222 13.9249C109.773 14.5672 110.052 15.5257 110.052 16.7746C110.052 18.0389 109.789 19.0101 109.271 19.6597C108.756 20.3045 107.982 20.632 106.97 20.632ZM107.093 10.695C105.173 10.695 103.648 11.2575 102.561 12.367C101.474 13.4766 100.923 15.0122 100.923 16.9314C100.923 18.7543 101.461 20.2206 102.522 21.2888C103.583 22.3574 105.026 22.8987 106.812 22.8987C108.673 22.8987 110.168 22.3283 111.254 21.2034C112.341 20.0798 112.892 18.5587 112.892 16.6843C112.892 14.8329 112.375 13.3557 111.356 12.2946C110.336 11.2331 108.901 10.695 107.093 10.695ZM96.4534 10.695C95.1475 10.695 94.0672 11.029 93.242 11.6876C92.4118 12.3502 91.9907 13.2191 91.9907 14.2706C91.9907 14.8172 92.0816 15.3027 92.2604 15.7145C92.4404 16.1277 92.7189 16.4915 93.089 16.7968C93.4562 17.0996 94.023 17.4168 94.7742 17.7395C95.4056 17.9994 95.8765 18.2192 96.1757 18.3924C96.4681 18.5622 96.6756 18.7328 96.7928 18.899C96.9066 19.0617 96.9644 19.2843 96.9644 19.559C96.9644 20.3412 96.3786 20.7218 95.1733 20.7218C94.7262 20.7218 94.2163 20.6284 93.6577 20.4444C93.103 20.2632 92.5795 19.9977 92.1055 19.6574L91.9904 19.5749V22.2441L92.0327 22.2638C92.4249 22.4448 92.9195 22.5976 93.5025 22.7177C94.0843 22.838 94.613 22.8992 95.0722 22.8992C96.4893 22.8992 97.6305 22.5635 98.4632 21.901C99.3012 21.2339 99.7259 20.3444 99.7259 19.2565C99.7259 18.4717 99.4973 17.7987 99.0466 17.256C98.5991 16.7176 97.8223 16.2234 96.7388 15.7865C95.8757 15.4401 95.3227 15.1525 95.0946 14.9317C94.8746 14.7184 94.763 14.4168 94.763 14.0349C94.763 13.6963 94.9008 13.425 95.1837 13.2054C95.4689 12.9846 95.8658 12.8723 96.3636 12.8723C96.8256 12.8723 97.2982 12.9453 97.7682 13.0883C98.2379 13.2313 98.6504 13.4228 98.9948 13.6571L99.1081 13.7345V11.2025L99.0646 11.1838C98.7469 11.0475 98.3279 10.931 97.8191 10.8364C97.3126 10.7424 96.8531 10.695 96.4534 10.695ZM84.763 20.632C83.757 20.632 82.9633 20.2983 82.4043 19.6411C81.8417 18.9805 81.5571 18.0389 81.5571 16.8421C81.5571 15.6075 81.842 14.6413 82.405 13.969C82.9639 13.3012 83.7496 12.9622 84.7408 12.9622C85.7017 12.9622 86.467 13.286 87.0153 13.9249C87.5663 14.5672 87.8458 15.5257 87.8458 16.7746C87.8458 18.0389 87.5828 19.0101 87.0643 19.6597C86.5494 20.3045 85.7756 20.632 84.763 20.632ZM84.8866 10.695C82.9663 10.695 81.4413 11.2575 80.3546 12.367C79.2681 13.4766 78.7169 15.0122 78.7169 16.9314C78.7169 18.755 79.255 20.2206 80.3157 21.2888C81.3764 22.3574 82.8198 22.8987 84.6058 22.8987C86.4665 22.8987 87.9614 22.3283 89.0482 21.2034C90.1346 20.0798 90.6853 18.5587 90.6853 16.6843C90.6853 14.8329 90.1686 13.3557 89.149 12.2946C88.129 11.2331 86.6948 10.695 84.8866 10.695ZM74.5084 12.9917V10.9754H71.7697V22.6179H74.5084V16.6623C74.5084 15.6497 74.738 14.8177 75.1911 14.1893C75.6384 13.5684 76.2345 13.2538 76.9623 13.2538C77.209 13.2538 77.4859 13.2944 77.7858 13.3749C78.0826 13.4549 78.2976 13.5417 78.4244 13.6331L78.5395 13.7166V10.9555L78.4951 10.9365C78.2401 10.8281 77.8793 10.7735 77.4227 10.7735C76.7345 10.7735 76.1186 10.9946 75.5911 11.43C75.1281 11.8127 74.7934 12.3374 74.5375 12.9917H74.5084ZM66.8653 10.695C65.6088 10.695 64.4882 10.9644 63.5349 11.4955C62.5798 12.0278 61.841 12.7878 61.3384 13.7541C60.8381 14.7182 60.584 15.8443 60.584 17.1001C60.584 18.2001 60.8303 19.2096 61.3172 20.0993C61.8043 20.9905 62.4938 21.6877 63.3665 22.1712C64.238 22.6542 65.2453 22.899 66.3606 22.899C67.6621 22.899 68.7733 22.6388 69.6643 22.1257L69.7003 22.105V19.596L69.5851 19.68C69.1816 19.974 68.7306 20.2087 68.2453 20.3777C67.7612 20.5466 67.32 20.632 66.933 20.632C65.8584 20.632 64.9957 20.2958 64.3695 19.6328C63.742 18.9691 63.4238 18.037 63.4238 16.8641C63.4238 15.6838 63.7556 14.7278 64.4095 14.0223C65.0615 13.319 65.9258 12.9622 66.9782 12.9622C67.8783 12.9622 68.7555 13.267 69.5854 13.869L69.7003 13.9524V11.3087L69.6632 11.2879C69.3509 11.113 68.9249 10.9687 68.3962 10.8592C67.8696 10.75 67.3546 10.695 66.8653 10.695ZM58.6978 10.9756H55.9592V22.6179H58.6978V10.9756ZM57.3565 6.01582C56.9057 6.01582 56.5126 6.16926 56.1896 6.47333C55.8653 6.77825 55.7008 7.16217 55.7008 7.61525C55.7008 8.06121 55.8633 8.43813 56.1846 8.73495C56.5038 9.0309 56.8981 9.18091 57.3566 9.18091C57.815 9.18091 58.2108 9.0309 58.5338 8.73544C58.8589 8.43813 59.0237 8.06134 59.0237 7.61525C59.0237 7.17802 58.8633 6.79803 58.5472 6.48561C58.2313 6.17381 57.8306 6.01582 57.3565 6.01582ZM50.5234 10.1166V22.6179H53.3183V6.37222H49.45L44.5331 18.4391L39.7616 6.37222H35.7358V22.6178H38.3623V10.1153H38.4525L43.4911 22.6179H45.4732L50.4332 10.1166H50.5234Z" fill="#706D6E"/>
<path d="M13.3835 13.8268H0.5V0.943359H13.3835V13.8268Z" fill="#F1511B"/>
<path d="M27.6083 13.8268H14.725V0.943359H27.6083V13.8268Z" fill="#80CC28"/>
<path d="M13.3831 28.0567H0.5V15.1733H13.3831V28.0567Z" fill="#00ADEF"/>
<path d="M27.6083 28.0567H14.725V15.1733H27.6083V28.0567Z" fill="#FBBC09"/>
</svg>
