<svg width="130" height="43" viewBox="0 0 130 43" fill="none" xmlns="http://www.w3.org/2000/svg">
<path d="M129.906 10.2378C131.67 20.3479 104.146 33.5881 68.4237 39.8099C32.7052 46.0316 2.3193 42.8745 0.557921 32.7601C-1.20204 22.6485 26.3284 9.41255 62.0469 3.19223C97.7668 -3.03236 128.147 0.124754 129.906 10.2378Z" fill="#034EA2"/>
<path d="M96.2871 25.2467L96.1036 14.7339H99.4186V27.9841H94.6524L91.3444 17.1099H91.2733L91.4568 27.9841H88.1631V14.7339H93.1357L96.2131 25.2467H96.2871Z" fill="white"/>
<path d="M36.0288 15.9745L34.1949 28.1235H30.5796L33.0624 14.7339H39.0181L41.4894 28.1235H37.8884L36.1042 15.9745H36.0288Z" fill="white"/>
<path d="M51.6437 24.9692L53.2983 14.7339H58.7589L59.0491 28.1235H55.7028L55.6146 16.0855H55.5449L53.3069 28.1235H49.9093L47.6699 16.0855H47.5973L47.5134 28.1235H44.1599L44.4559 14.7339H49.9193L51.5725 24.9692H51.6437Z" fill="white"/>
<path d="M24.9412 24.3457C25.0721 24.6701 25.0323 25.087 24.9711 25.3388C24.8587 25.7841 24.5571 26.238 23.6664 26.238C22.827 26.238 22.3177 25.7571 22.3177 25.0215V23.7254H18.7266L18.7238 24.7626C18.7238 27.7475 21.0742 28.6481 23.5925 28.6481C26.014 28.6481 28.0087 27.8201 28.326 25.5892C28.4882 24.4325 28.3673 23.6756 28.3118 23.3896C27.7469 20.5868 22.6648 19.7502 22.2864 18.1823C22.2223 17.9134 22.2408 17.6288 22.2721 17.4766C22.3646 17.0498 22.6577 16.5788 23.4957 16.5788C24.2782 16.5788 24.7406 17.0626 24.7406 17.7939C24.7406 18.04 24.7406 18.6205 24.7406 18.6205H28.0799V17.6801C28.0799 14.7634 25.462 14.3081 23.5654 14.3081C21.1837 14.3081 19.2374 15.0949 18.8817 17.2746C18.7849 17.8764 18.7707 18.4128 18.9116 19.0843C19.4963 21.8203 24.2526 22.6128 24.9412 24.3457Z" fill="white"/>
<path d="M68.4806 24.3215C68.6129 24.643 68.5702 25.0485 68.5105 25.3004C68.4009 25.7443 68.1022 26.191 67.2172 26.191C66.3891 26.191 65.8841 25.7101 65.8841 24.9916L65.8812 23.7069H62.3272L62.3229 24.7298C62.3229 27.6849 64.6519 28.577 67.1446 28.577C69.5406 28.577 71.5168 27.7603 71.8284 25.5493C71.9906 24.4012 71.8753 23.6542 71.817 23.3739C71.255 20.5967 66.2241 19.7687 65.8499 18.2164C65.7859 17.9489 65.8044 17.6672 65.8371 17.5235C65.9324 17.0939 66.2198 16.6343 67.0493 16.6343C67.8247 16.6343 68.2771 17.1067 68.2771 17.8323C68.2771 18.0756 68.2771 18.6504 68.2771 18.6504H71.5908V17.7199C71.5908 14.8345 68.9942 14.3821 67.1162 14.3821C64.7615 14.3821 62.8308 15.1589 62.4822 17.3229C62.3855 17.9162 62.3755 18.4426 62.5135 19.1113C63.0898 21.8189 67.7991 22.6056 68.4806 24.3215Z" fill="white"/>
<path d="M79.7275 26.1201C80.6566 26.1201 80.9469 25.477 81.0109 25.1483C81.0379 25.0032 81.045 24.8097 81.0422 24.6361V14.728H84.4284V24.3331C84.4355 24.5792 84.4113 25.0857 84.3999 25.2124C84.1623 27.7122 82.1861 28.5231 79.7261 28.5231C77.2633 28.5231 75.2857 27.7122 75.0509 25.2124C75.0395 25.0857 75.0154 24.5792 75.0225 24.3331V14.728H78.4058V24.6361C78.4058 24.8097 78.4115 25.0046 78.4371 25.1483C78.5097 25.477 78.7914 26.1201 79.7275 26.1201Z" fill="white"/>
<path d="M107.659 25.9793C108.63 25.9793 108.968 25.3661 109.031 25.009C109.055 24.8553 109.062 24.6689 109.061 24.4996V22.5561H107.686V20.6012H112.434V24.1951C112.431 24.4456 112.426 24.6305 112.386 25.0773C112.162 27.513 110.049 28.3823 107.676 28.3823C105.299 28.3823 103.189 27.513 102.963 25.0773C102.924 24.6305 102.919 24.4456 102.914 24.1951L102.917 18.5567C102.917 18.3191 102.947 17.898 102.973 17.6746C103.27 15.172 105.299 14.3667 107.676 14.3667C110.051 14.3667 112.13 15.1677 112.376 17.6746C112.42 18.1015 112.406 18.5567 112.406 18.5567V19.0035H109.029V18.2537C109.032 18.2551 109.025 17.935 108.985 17.7443C108.928 17.4484 108.671 16.7683 107.651 16.7683C106.675 16.7683 106.389 17.4114 106.318 17.7443C106.276 17.9208 106.261 18.1598 106.261 18.376V24.4996C106.258 24.6689 106.268 24.8553 106.295 25.009C106.353 25.3675 106.69 25.9793 107.659 25.9793Z" fill="white"/>
</svg>
