<svg width="131" height="17" viewBox="0 0 131 17" fill="none" xmlns="http://www.w3.org/2000/svg">
<path d="M111.511 6.7438V17H114.789V10.1625H126.778V17H130.057V6.7438H111.511ZM114.415 3.41873H127.059C128.839 3.09091 130.103 1.49862 130.478 0H110.996C111.371 1.49862 112.682 3.04408 114.415 3.41873ZM101.536 17C103.175 16.2975 104.065 15.0799 104.439 13.6749H89.6874V0.046832H86.3623V17H101.536ZM61.7755 3.3719H73.4835C75.2631 2.85675 76.7149 1.49862 77.0896 0.046832H58.5441V10.0689H73.7177V13.5813H61.8224C59.9491 14.0964 58.3568 15.3609 57.5606 17H76.9959V6.7438H61.8224L61.7755 3.3719ZM32.927 3.41873H45.5717C47.3513 3.09091 48.6626 1.49862 48.9904 0H29.4615C29.8361 1.49862 31.1474 3.04408 32.927 3.41873ZM32.927 10.1157H45.5717C47.3513 9.78788 48.6626 8.19559 48.9904 6.69697H29.4615C29.8361 8.19559 31.1474 9.74105 32.927 10.1157ZM32.927 17H45.5717C47.3513 16.6722 48.6626 15.0799 48.9904 13.5813H29.4615C29.8361 15.0799 31.1474 16.6722 32.927 17Z" fill="black"/>
<path d="M0.00415039 0.046832C0.378806 1.54545 1.6901 3.04408 3.42288 3.41873H8.76173L9.04272 3.5124V16.9532H12.3678V3.5124L12.6488 3.41873H17.9876C19.7672 2.95041 21.0317 1.54545 21.4064 0.046832V0L0.00415039 0.046832Z" fill="black"/>
</svg>
