<svg width="50" height="39" viewBox="0 0 50 39" fill="none" xmlns="http://www.w3.org/2000/svg">
<rect x="37" y="5" width="13" height="14" fill="#407BFF" fill-opacity="0.37"/>
<path d="M25.9577 1.24538L30.4177 10.1874C30.7393 10.838 31.3668 11.2906 32.0946 11.3973L42.085 12.8525C42.6724 12.9349 43.2021 13.2439 43.557 13.7112C43.9119 14.1784 44.0627 14.7654 43.9761 15.3423C43.907 15.8204 43.6815 16.2635 43.3338 16.6047L36.0908 23.6181C35.5603 24.1139 35.319 24.8386 35.4486 25.5468L37.2326 35.4181C37.4296 36.599 36.6417 37.7218 35.4486 37.9604C34.9603 38.0371 34.4598 37.9572 34.0214 37.7325L25.1013 33.0861C24.4408 32.7522 23.6568 32.7522 22.9962 33.0861L14.0762 37.7325C12.9775 38.3169 11.6048 37.9168 11.0077 36.8383C10.7815 36.4066 10.7003 35.9155 10.7758 35.4356L12.5598 25.5643C12.6894 24.8561 12.4481 24.1314 11.9176 23.6356L4.67452 16.6222C4.24959 16.2104 4.01038 15.6483 4.01038 15.0617C4.01038 14.4752 4.24959 13.9131 4.67452 13.5013C5.01683 13.153 5.47009 12.9302 5.959 12.8701L15.9494 11.4148C16.6773 11.3082 17.3047 10.8555 17.6264 10.205L21.9258 1.24538C22.3018 0.481129 23.096 0.001848 23.9596 0.0180368H24.2272C24.9787 0.111732 25.6304 0.573955 25.9577 1.24538Z" fill="#0271E0"/>
<path d="M24.0131 32.8232C23.6224 32.8206 23.2549 32.9493 22.9073 33.1246L14.0155 37.7596C12.949 38.2969 11.5948 37.8652 11.0077 36.8383C10.7805 36.4133 10.6991 35.9274 10.7758 35.4532L12.5598 25.5994C12.6796 24.8867 12.4402 24.1611 11.9176 23.6532L4.65668 16.6398C3.78111 15.7774 3.78111 14.3812 4.65668 13.5188C4.99915 13.1804 5.44319 12.9592 5.92332 12.8876L15.9494 11.4148C16.722 11.3027 17.2742 10.8755 17.6264 10.205L21.9819 1.14271C22.3138 0.405508 23.4298 -0.103944 24.0309 0.0180619C24.0131 0.614199 24.0131 32.4199 24.0131 32.8232Z" fill="#0271E0"/>
<circle cx="9.5" cy="28.5" r="9.5" fill="#407BFF" fill-opacity="0.37"/>
</svg>
