<svg width="48" height="48" viewBox="0 0 48 48" fill="none" xmlns="http://www.w3.org/2000/svg">
<rect x="2.08972" y="28.7526" width="17.109" height="18.8694" fill="#407BFF" fill-opacity="0.37"/>
<circle cx="38.5" cy="37.5" r="6.5" fill="#407BFF" fill-opacity="0.37"/>
<path d="M30.6263 8C30.5317 8.48601 30.4846 8.98003 30.4856 9.47512C30.4856 13.9171 34.0918 17.518 38.5403 17.518C39.0301 17.5156 39.5187 17.4686 40 17.3776V33.3229C40 40.0312 36.043 44 29.3249 44H14.6927C7.95701 44 4 40.0312 4 33.3229V18.7122C4 12.0039 7.95701 8 14.6927 8H30.6263ZM30.868 19.9885L30.6333 20.0032C30.2422 20.0594 29.8907 20.2716 29.659 20.5912L24.8403 26.7902L19.3532 22.4702C19.0399 22.2262 18.6414 22.1184 18.2476 22.1713C17.8538 22.2242 17.498 22.4332 17.2604 22.7512L11.3512 30.3727C11.1435 30.6316 11.0317 30.9541 11.0347 31.2859L11.0399 31.5066C11.0972 32.0866 11.495 32.5877 12.0648 32.7676C12.7058 32.97 13.4028 32.7146 13.7606 32.1463L18.7025 25.7541L24.1895 30.0566C24.5016 30.3082 24.9028 30.4223 25.3008 30.3726C25.6988 30.3229 26.0595 30.1137 26.3 29.7932L32.0156 22.4176V22.3824C32.5049 21.7249 32.3801 20.7978 31.7342 20.2927C31.4216 20.0514 31.0244 19.9469 30.6333 20.0032L30.868 19.9885Z" fill="#0271E0"/>
<path opacity="0.4" d="M39 14C41.7614 14 44 11.7614 44 9C44 6.23858 41.7614 4 39 4C36.2386 4 34 6.23858 34 9C34 11.7614 36.2386 14 39 14Z" fill="#0271E0"/>
</svg>
