<svg width="46" height="40" viewBox="0 0 46 40" fill="none" xmlns="http://www.w3.org/2000/svg">
<rect x="9.43469" y="3" width="17.109" height="18.8694" transform="rotate(30 9.43469 3)" fill="#407BFF" fill-opacity="0.37"/>
<circle cx="36.5932" cy="28.7807" r="6.5" transform="rotate(30 36.5932 28.7807)" fill="#407BFF" fill-opacity="0.37"/>
<path d="M33.1729 10C35.7005 10 38.3519 11.8193 39.2887 16.2401L40.8265 28.6295C41.9578 36.7071 37.4151 40 31.3169 40H14.7371C8.62124 40 3.93715 37.7259 5.20981 28.6295L6.76528 16.2401C7.56069 11.6919 10.3004 10 12.8634 10H33.1729ZM17.194 16.6586C16.2178 16.6586 15.4264 17.4731 15.4264 18.4779C15.4264 19.4826 16.2178 20.2971 17.194 20.2971C18.1702 20.2971 18.9616 19.4826 18.9616 18.4779L18.9478 18.2497C18.8387 17.3526 18.0951 16.6586 17.194 16.6586ZM28.7716 16.6586C27.7954 16.6586 27.0041 17.4731 27.0041 18.4779C27.0041 19.4826 27.7954 20.2971 28.7716 20.2971C29.7478 20.2971 30.5392 19.4826 30.5392 18.4779C30.5392 17.4731 29.7478 16.6586 28.7716 16.6586Z" fill="#0271E0"/>
<path opacity="0.4" d="M32.9477 9.54865C32.954 9.70378 32.9242 9.85825 32.8606 10H29.9864C29.9308 9.85589 29.9013 9.70306 29.8993 9.54865C29.8993 5.71365 26.7797 2.60477 22.9315 2.60477C19.0833 2.60477 15.9637 5.71365 15.9637 9.54865C15.99 9.69795 15.99 9.8507 15.9637 10H13.0198C12.9934 9.8507 12.9934 9.69795 13.0198 9.54865C13.2434 4.21182 17.65 0 23.0099 0C28.3698 0 32.7763 4.21182 33 9.54865H32.9477Z" fill="#0271E0"/>
</svg>
