<svg width="56" height="44" viewBox="0 0 56 44" fill="none" xmlns="http://www.w3.org/2000/svg">
<rect y="13" width="17" height="17" fill="#B8CEFF"/>
<circle cx="50" cy="38" r="6" fill="#B8CEFF"/>
<path opacity="0.4" d="M40.151 0H46.923C49.7275 0 52 2.2917 52 5.11993V11.949C52 14.7773 49.7275 17.069 46.923 17.069H40.151C37.3465 17.069 35.074 14.7773 35.074 11.949V5.11993C35.074 2.2917 37.3465 0 40.151 0Z" fill="#0271E0"/>
<path d="M23.849 22.931C26.6535 22.931 28.926 25.2227 28.926 28.051V34.8801C28.926 37.7064 26.6535 40 23.849 40H17.077C14.2725 40 12 37.7064 12 34.8801V28.051C12 25.2227 14.2725 22.931 17.077 22.931H23.849ZM46.923 22.931C49.7275 22.931 52 25.2227 52 28.051V34.8801C52 37.7064 49.7275 40 46.923 40H40.151C37.3465 40 35.074 37.7064 35.074 34.8801V28.051C35.074 25.2227 37.3465 22.931 40.151 22.931H46.923ZM23.849 0C26.6535 0 28.926 2.2917 28.926 5.11993V11.949C28.926 14.7773 26.6535 17.069 23.849 17.069H17.077C14.2725 17.069 12 14.7773 12 11.949V5.11993C12 2.2917 14.2725 0 17.077 0H23.849Z" fill="#0271E0"/>
</svg>
