<svg width="54" height="51" viewBox="0 0 54 51" fill="none" xmlns="http://www.w3.org/2000/svg">
<rect x="45" y="22" width="9" height="9" fill="#407BFF" fill-opacity="0.37"/>
<rect y="32" width="19" height="19" fill="#407BFF" fill-opacity="0.37"/>
<circle cx="9.5" cy="11.5" r="6.5" fill="#407BFF" fill-opacity="0.37"/>
<path d="M39.0276 0C45.92 0 49.9929 3.95724 49.9929 10.6757V10.7503H41.5236C37.5822 10.7572 34.3893 13.8703 34.3822 17.7131C34.3769 21.5646 37.5733 24.6916 41.5236 24.6968H50V25.3087C50 32.0272 45.9271 36 39.0347 36H20.9671C14.0729 36 10 32.0272 10 25.3087V10.6757C10 3.95724 14.0729 0 20.9671 0H39.0276ZM30.7662 7.74981H19.4791C18.64 7.75329 17.9591 8.41716 17.9555 9.23704C17.952 10.0604 18.6347 10.7312 19.4791 10.7347H30.7804C31.6249 10.7312 32.3076 10.0604 32.304 9.2353C32.3004 8.41196 31.6107 7.74635 30.7662 7.74981Z" fill="#0271E0"/>
<path opacity="0.4" d="M38.0748 18.5933C38.4931 20.4957 40.161 21.8341 42.0652 21.7993H48.565C49.3573 21.7993 50 21.1432 50 20.3321V15.269C49.9983 14.4596 49.3573 13.8017 48.565 13.8H41.9122C39.7461 13.8069 37.9966 15.6049 38 17.8205C38 18.0799 38.0255 18.3392 38.0748 18.5933Z" fill="#0271E0"/>
<path d="M42 19.8C43.1046 19.8 44 18.9046 44 17.8C44 16.6954 43.1046 15.8 42 15.8C40.8954 15.8 40 16.6954 40 17.8C40 18.9046 40.8954 19.8 42 19.8Z" fill="#0271E0"/>
</svg>
