<svg width="48" height="48" viewBox="0 0 48 48" fill="none" xmlns="http://www.w3.org/2000/svg">
<rect y="30" width="10" height="10" fill="#407BFF" fill-opacity="0.37"/>
<path opacity="0.4" d="M24.0003 26.2222C30.2135 26.2222 35.2504 21.2476 35.2504 15.1111C35.2504 8.97461 30.2135 4 24.0003 4C17.787 4 12.7501 8.97461 12.7501 15.1111C12.7501 21.2476 17.787 26.2222 24.0003 26.2222Z" fill="#0271E0"/>
<path d="M41.9805 37.3516C41.9906 37.1935 41.9906 37.0349 41.9805 36.8767C41.936 36.2923 41.7701 35.7215 41.4922 35.1964C40.3986 33.0594 37.3325 32.0913 34.7742 31.5434C32.9489 31.1634 31.0944 30.9191 29.2279 30.8128L27.275 30.6667H26.3961H25.3025H22.6856H21.5919H20.7131L18.7602 30.8128C16.8937 30.9191 15.0392 31.1634 13.2139 31.5434C10.6556 32.0183 7.58948 33.0046 6.49584 35.1964C6.21797 35.7215 6.05213 36.2923 6.00761 36.8767C5.99746 37.0349 5.99746 37.1935 6.00761 37.3516C5.99824 37.5098 5.99824 37.6683 6.00761 37.8265C6.06073 38.406 6.23315 38.9704 6.51537 39.4886C7.60901 41.6256 10.6751 42.5936 13.2334 43.1416C15.0621 43.5038 16.9152 43.7479 18.7797 43.8722L20.7327 44H21.2014H21.6115H26.4157H26.8258H27.2945L29.2474 43.8722C31.1119 43.7479 32.965 43.5038 34.7937 43.1416C37.352 42.6484 40.4181 41.6804 41.5118 39.4886C41.7808 38.9539 41.9462 38.3788 42 37.79C42.0025 37.6436 41.996 37.4973 41.9805 37.3516Z" fill="#0271E0"/>
<rect x="32" y="26" width="10" height="10" fill="#407BFF" fill-opacity="0.37"/>
</svg>
